<svg xmlns="http://www.w3.org/2000/svg" xmlns:xlink="http://www.w3.org/1999/xlink" version="1.1" width="1000" height="1000" viewBox="0 0 1000 1000" xml:space="preserve">
<desc>Created with Fabric.js 3.5.0</desc>
<defs>
</defs>
<rect x="0" y="0" width="100px" height="100px" fill="#ffffff"/>
<g transform="matrix(1.0022 0 0 1.0022 200.44 499.9923)" id="184535">
<g style="" vector-effect="non-scaling-stroke">
		<g transform="matrix(1 0 0 1 0 -186.65)" id="XMLID_105_">
<polygon style="stroke: none; stroke-width: 1; stroke-dasharray: none; stroke-linecap: butt; stroke-dashoffset: 0; stroke-linejoin: miter; stroke-miterlimit: 4; is-custom-font: none; font-file-url: none; fill: rgb(192,192,192); fill-rule: nonzero; opacity: 1;" points="-13.3,13.35 13.3,13.35 40,13.35 66.7,13.35 66.7,-13.35 40,-13.35 13.3,-13.35 -13.3,-13.35 -40,-13.35 -66.7,-13.35 -66.7,13.35 -40,13.35 "/>
</g>
		<g transform="matrix(1 0 0 1 -93.35 -160)" id="XMLID_241_">
<polygon style="stroke: none; stroke-width: 1; stroke-dasharray: none; stroke-linecap: butt; stroke-dashoffset: 0; stroke-linejoin: miter; stroke-miterlimit: 4; is-custom-font: none; font-file-url: none; fill: rgb(192,192,192); fill-rule: nonzero; opacity: 1;" points="26.65,13.3 26.65,-13.3 0.05,-13.3 -26.65,-13.3 -26.65,13.3 0.05,13.3 "/>
</g>
		<g transform="matrix(1 0 0 1 93.35 -160)" id="XMLID_242_">
<polygon style="stroke: none; stroke-width: 1; stroke-dasharray: none; stroke-linecap: butt; stroke-dashoffset: 0; stroke-linejoin: miter; stroke-miterlimit: 4; is-custom-font: none; font-file-url: none; fill: rgb(192,192,192); fill-rule: nonzero; opacity: 1;" points="-0.05,13.3 26.65,13.3 26.65,-13.3 -0.05,-13.3 -26.65,-13.3 -26.65,13.3 "/>
</g>
		<g transform="matrix(1 0 0 1 -133.35 -133.35)" id="XMLID_243_">
<rect style="stroke: none; stroke-width: 1; stroke-dasharray: none; stroke-linecap: butt; stroke-dashoffset: 0; stroke-linejoin: miter; stroke-miterlimit: 4; is-custom-font: none; font-file-url: none; fill: rgb(192,192,192); fill-rule: nonzero; opacity: 1;" x="-13.35" y="-13.35" rx="0" ry="0" width="26.7" height="26.7"/>
</g>
		<g transform="matrix(1 0 0 1 133.35 -133.35)" id="XMLID_244_">
<rect style="stroke: none; stroke-width: 1; stroke-dasharray: none; stroke-linecap: butt; stroke-dashoffset: 0; stroke-linejoin: miter; stroke-miterlimit: 4; is-custom-font: none; font-file-url: none; fill: rgb(192,192,192); fill-rule: nonzero; opacity: 1;" x="-13.35" y="-13.35" rx="0" ry="0" width="26.7" height="26.7"/>
</g>
		<g transform="matrix(1 0 0 1 0 -40)" id="XMLID_268_">
<polygon style="stroke: none; stroke-width: 1; stroke-dasharray: none; stroke-linecap: butt; stroke-dashoffset: 0; stroke-linejoin: miter; stroke-miterlimit: 4; is-custom-font: none; font-file-url: none; fill: rgb(192,192,192); fill-rule: nonzero; opacity: 1;" points="-13.3,-53.3 -13.3,-26.7 -13.3,0 -13.3,26.7 -13.3,53.3 -13.3,80 13.3,80 13.3,53.3 13.3,26.7 13.3,0 13.3,-26.7 13.3,-53.3 13.3,-80 -13.3,-80 "/>
</g>
		<g transform="matrix(1 0 0 1 -160 -93.35)" id="XMLID_269_">
<polygon style="stroke: none; stroke-width: 1; stroke-dasharray: none; stroke-linecap: butt; stroke-dashoffset: 0; stroke-linejoin: miter; stroke-miterlimit: 4; is-custom-font: none; font-file-url: none; fill: rgb(192,192,192); fill-rule: nonzero; opacity: 1;" points="13.3,0.05 13.3,-26.65 -13.3,-26.65 -13.3,0.05 -13.3,26.65 13.3,26.65 "/>
</g>
		<g transform="matrix(1 0 0 1 160 -93.35)" id="XMLID_270_">
<polygon style="stroke: none; stroke-width: 1; stroke-dasharray: none; stroke-linecap: butt; stroke-dashoffset: 0; stroke-linejoin: miter; stroke-miterlimit: 4; is-custom-font: none; font-file-url: none; fill: rgb(192,192,192); fill-rule: nonzero; opacity: 1;" points="-13.3,26.65 13.3,26.65 13.3,0.05 13.3,-26.65 -13.3,-26.65 -13.3,0.05 "/>
</g>
		<g transform="matrix(1 0 0 1 186.65 0)" id="XMLID_271_">
<polygon style="stroke: none; stroke-width: 1; stroke-dasharray: none; stroke-linecap: butt; stroke-dashoffset: 0; stroke-linejoin: miter; stroke-miterlimit: 4; is-custom-font: none; font-file-url: none; fill: rgb(192,192,192); fill-rule: nonzero; opacity: 1;" points="-13.35,-66.7 -13.35,-40 -13.35,-13.3 -13.35,13.3 -13.35,40 -13.35,66.7 13.35,66.7 13.35,40 13.35,13.3 13.35,-13.3 13.35,-40 13.35,-66.7 "/>
</g>
		<g transform="matrix(1 0 0 1 -186.65 0)" id="XMLID_272_">
<polygon style="stroke: none; stroke-width: 1; stroke-dasharray: none; stroke-linecap: butt; stroke-dashoffset: 0; stroke-linejoin: miter; stroke-miterlimit: 4; is-custom-font: none; font-file-url: none; fill: rgb(192,192,192); fill-rule: nonzero; opacity: 1;" points="13.35,13.3 13.35,-13.3 13.35,-40 13.35,-66.7 -13.35,-66.7 -13.35,-40 -13.35,-13.3 -13.35,13.3 -13.35,40 -13.35,66.7 13.35,66.7 13.35,40 "/>
</g>
		<g transform="matrix(1 0 0 1 -160 93.35)" id="XMLID_273_">
<polygon style="stroke: none; stroke-width: 1; stroke-dasharray: none; stroke-linecap: butt; stroke-dashoffset: 0; stroke-linejoin: miter; stroke-miterlimit: 4; is-custom-font: none; font-file-url: none; fill: rgb(192,192,192); fill-rule: nonzero; opacity: 1;" points="13.3,-26.65 -13.3,-26.65 -13.3,-0.05 -13.3,26.65 13.3,26.65 13.3,-0.05 "/>
</g>
		<g transform="matrix(1 0 0 1 160 93.35)" id="XMLID_274_">
<polygon style="stroke: none; stroke-width: 1; stroke-dasharray: none; stroke-linecap: butt; stroke-dashoffset: 0; stroke-linejoin: miter; stroke-miterlimit: 4; is-custom-font: none; font-file-url: none; fill: rgb(192,192,192); fill-rule: nonzero; opacity: 1;" points="-13.3,-0.05 -13.3,26.65 13.3,26.65 13.3,-0.05 13.3,-26.65 -13.3,-26.65 "/>
</g>
		<g transform="matrix(1 0 0 1 0.05 106.65)" id="XMLID_275_">
<rect style="stroke: none; stroke-width: 1; stroke-dasharray: none; stroke-linecap: butt; stroke-dashoffset: 0; stroke-linejoin: miter; stroke-miterlimit: 4; is-custom-font: none; font-file-url: none; fill: rgb(192,192,192); fill-rule: nonzero; opacity: 1;" x="-13.35" y="-13.35" rx="0" ry="0" width="26.7" height="26.7"/>
</g>
		<g transform="matrix(1 0 0 1 -133.35 133.35)" id="XMLID_276_">
<rect style="stroke: none; stroke-width: 1; stroke-dasharray: none; stroke-linecap: butt; stroke-dashoffset: 0; stroke-linejoin: miter; stroke-miterlimit: 4; is-custom-font: none; font-file-url: none; fill: rgb(192,192,192); fill-rule: nonzero; opacity: 1;" x="-13.35" y="-13.35" rx="0" ry="0" width="26.7" height="26.7"/>
</g>
		<g transform="matrix(1 0 0 1 133.35 133.35)" id="XMLID_277_">
<rect style="stroke: none; stroke-width: 1; stroke-dasharray: none; stroke-linecap: butt; stroke-dashoffset: 0; stroke-linejoin: miter; stroke-miterlimit: 4; is-custom-font: none; font-file-url: none; fill: rgb(192,192,192); fill-rule: nonzero; opacity: 1;" x="-13.35" y="-13.35" rx="0" ry="0" width="26.7" height="26.7"/>
</g>
		<g transform="matrix(1 0 0 1 -93.35 160)" id="XMLID_278_">
<polygon style="stroke: none; stroke-width: 1; stroke-dasharray: none; stroke-linecap: butt; stroke-dashoffset: 0; stroke-linejoin: miter; stroke-miterlimit: 4; is-custom-font: none; font-file-url: none; fill: rgb(192,192,192); fill-rule: nonzero; opacity: 1;" points="0.05,-13.3 -26.65,-13.3 -26.65,13.3 0.05,13.3 26.65,13.3 26.65,-13.3 "/>
</g>
		<g transform="matrix(1 0 0 1 93.35 160)" id="XMLID_279_">
<polygon style="stroke: none; stroke-width: 1; stroke-dasharray: none; stroke-linecap: butt; stroke-dashoffset: 0; stroke-linejoin: miter; stroke-miterlimit: 4; is-custom-font: none; font-file-url: none; fill: rgb(192,192,192); fill-rule: nonzero; opacity: 1;" points="-26.65,-13.3 -26.65,13.3 -0.05,13.3 26.65,13.3 26.65,-13.3 -0.05,-13.3 "/>
</g>
		<g transform="matrix(1 0 0 1 0 186.65)" id="XMLID_280_">
<polygon style="stroke: none; stroke-width: 1; stroke-dasharray: none; stroke-linecap: butt; stroke-dashoffset: 0; stroke-linejoin: miter; stroke-miterlimit: 4; is-custom-font: none; font-file-url: none; fill: rgb(192,192,192); fill-rule: nonzero; opacity: 1;" points="13.3,-13.35 -13.3,-13.35 -40,-13.35 -66.7,-13.35 -66.7,13.35 -40,13.35 -13.3,13.35 13.3,13.35 40,13.35 66.7,13.35 66.7,-13.35 40,-13.35 "/>
</g>
</g>
</g>
<g transform="matrix(1 0 0 1 680.9355 500)" style="" id="286232">
		
<path xml:space="preserve" font-family="Arbutus" font-size="132" font-style="normal" font-weight="normal" style="stroke: none; stroke-width: 1; stroke-dasharray: none; stroke-linecap: butt; stroke-dashoffset: 0; stroke-linejoin: miter; stroke-miterlimit: 4; is-custom-font: none; font-file-url: none; fill: rgb(192,192,192); fill-rule: nonzero; opacity: 1; white-space: pre;" d="M-224.10 41.47L-224.10 41.47Q-223.72 39.86-223.43 37.57Q-223.14 35.28-223.14 32.83L-223.14 32.83Q-223.14 30.57-223.46 28.41Q-223.78 26.26-224.10 24.71L-224.10 24.71Q-221.20 24.71-219.01 24.26Q-216.82 23.81-215.34 22.74Q-213.86 21.68-213.11 19.84Q-212.37 18.01-212.37 15.23L-212.37 15.23Q-212.37 9.82-212.66 5.95Q-212.95 2.09-213.50-0.43Q-214.05-2.94-214.89-4.26Q-215.72-5.58-216.82-5.91L-216.82-5.91Q-215.66-6.29-214.82-7.13Q-213.98-7.97-213.44-10.00Q-212.89-12.03-212.63-15.61Q-212.37-19.18-212.37-25.11L-212.37-25.11Q-212.37-27.89-213.11-29.72Q-213.86-31.56-215.34-32.62Q-216.82-33.69-219.01-34.14Q-221.20-34.59-224.10-34.59L-224.10-34.59Q-223.78-36.14-223.46-38.29Q-223.14-40.45-223.14-42.71L-223.14-42.71Q-223.14-45.16-223.43-47.45Q-223.72-49.73-224.10-51.35L-224.10-51.35Q-222.81-51.02-219.66-50.73Q-216.50-50.44-212.31-50.19Q-208.12-49.93-203.35-49.73Q-198.58-49.54-194.04-49.38Q-189.49-49.22-185.66-49.15Q-181.82-49.09-179.50-49.09L-179.50-49.09Q-177.18-49.09-173.57-49.15Q-169.96-49.22-165.81-49.38Q-161.65-49.54-157.30-49.73Q-152.95-49.93-149.11-50.19Q-145.28-50.44-142.34-50.73Q-139.41-51.02-138.12-51.35L-138.12-51.35Q-138.64-48.64-139.19-44.48Q-139.73-40.32-139.73-35.68L-139.73-35.68Q-139.73-32.98-139.54-30.37Q-139.35-27.76-139.12-25.60Q-138.90-23.44-138.61-21.83Q-138.32-20.22-138.12-19.44L-138.12-19.44Q-139.09-19.83-140.54-20.12Q-141.99-20.41-143.67-20.63Q-145.34-20.86-147.15-20.96Q-148.95-21.05-150.63-21.05L-150.63-21.05Q-153.59-21.05-156.56-20.70Q-159.52-20.34-162.23-19.44L-162.23-19.44Q-161.78-20.80-161.49-22.73Q-161.20-24.66-161.20-26.66L-161.20-26.66Q-161.20-29.95-162.33-31.91Q-163.45-33.88-165.19-34.91Q-166.93-35.94-169.00-36.23Q-171.06-36.52-172.93-36.52L-172.93-36.52Q-174.41-36.52-176.05-36.43Q-177.70-36.33-179.41-35.97Q-181.11-35.62-182.79-35.01Q-184.46-34.39-185.88-33.36L-185.88-33.36Q-186.14-31.88-186.33-29.95Q-186.53-28.01-186.53-25.11L-186.53-25.11Q-186.53-20.80-186.37-18.38Q-186.21-15.96-185.95-14.67L-185.95-14.67Q-184.21-13.90-181.89-13.58Q-179.57-13.25-177.12-13.25L-177.12-13.25Q-173.44-13.25-170.16-13.83Q-166.87-14.41-165.39-15.19L-165.39-15.19Q-165.90-13.77-166.13-11.26Q-166.35-8.74-166.35-5.97L-166.35-5.97Q-166.35-4.42-166.29-2.91Q-166.22-1.39-166.06-0.14Q-165.90 1.12-165.74 2.05Q-165.58 2.99-165.39 3.44L-165.39 3.44Q-165.97 3.12-167.26 2.76Q-168.54 2.41-170.25 2.09Q-171.96 1.76-173.99 1.54Q-176.02 1.31-178.15 1.31L-178.15 1.31Q-180.34 1.31-182.34 1.57Q-184.34 1.83-185.95 2.54L-185.95 2.54Q-186.08 3.31-186.17 4.31Q-186.27 5.31-186.37 6.82Q-186.46 8.34-186.50 10.40Q-186.53 12.46-186.53 15.23L-186.53 15.23Q-186.53 18.71-186.27 20.87Q-186.01 23.03-185.69 24.58L-185.69 24.58Q-184.14 25.42-182.40 25.97Q-180.66 26.51-178.89 26.80Q-177.12 27.09-175.44 27.19Q-173.77 27.29-172.28 27.29L-172.28 27.29Q-170.41 27.29-168.45 26.80Q-166.48 26.32-164.87 25.00Q-163.26 23.68-162.23 21.32Q-161.20 18.97-161.20 15.30L-161.20 15.30Q-161.20 12.98-161.49 10.72Q-161.78 8.47-162.23 6.98L-162.23 6.98Q-159.52 7.89-156.56 8.24Q-153.59 8.60-150.63 8.60L-150.63 8.60Q-148.95 8.60-147.15 8.50Q-145.34 8.40-143.67 8.18Q-141.99 7.95-140.54 7.66Q-139.09 7.37-138.12 6.98L-138.12 6.98Q-138.32 7.82-138.61 9.56Q-138.90 11.30-139.12 13.65Q-139.35 16.01-139.54 18.81Q-139.73 21.61-139.73 24.52L-139.73 24.52Q-139.73 27.03-139.57 29.45Q-139.41 31.86-139.19 34.05Q-138.96 36.25-138.67 38.15Q-138.38 40.05-138.12 41.47L-138.12 41.47Q-139.41 41.21-142.34 40.98Q-145.28 40.76-149.11 40.60Q-152.95 40.44-157.30 40.27Q-161.65 40.11-165.81 40.02Q-169.96 39.92-173.57 39.89Q-177.18 39.86-179.50 39.86L-179.50 39.86Q-181.82 39.86-185.66 39.89Q-189.49 39.92-194.04 40.02Q-198.58 40.11-203.35 40.27Q-208.12 40.44-212.31 40.60Q-216.50 40.76-219.66 40.98Q-222.81 41.21-224.10 41.47ZM-124.65 41.47L-124.65 41.47Q-124.14 39.79-123.94 37.47Q-123.75 35.15-123.75 32.89L-123.75 32.89Q-123.75 30.83-124.01 28.77Q-124.27 26.71-124.65 24.71L-124.65 24.71Q-121.04 24.71-118.69 24.39Q-116.34 24.06-114.92 23.26Q-113.50 22.45-112.95 20.97Q-112.41 19.49-112.41 17.17L-112.41 17.17L-112.41-0.75Q-112.47-3.52-113.12-5.17Q-113.76-6.81-114.89-7.68Q-116.02-8.55-117.66-8.84Q-119.30-9.13-121.37-9.13L-121.37-9.13L-123.36-9.13Q-122.85-10.42-122.46-12.71Q-122.07-14.99-122.07-17.51L-122.07-17.51Q-122.07-19.96-122.43-22.18Q-122.78-24.40-123.36-25.76L-123.36-25.76Q-121.49-25.50-118.88-25.37Q-116.27-25.24-113.24-25.24L-113.24-25.24Q-110.15-25.24-106.83-25.40Q-103.51-25.56-100.35-25.89Q-97.20-26.21-94.39-26.79Q-91.59-27.37-89.53-28.14L-89.53-28.14Q-89.98-26.85-90.14-25.53Q-90.30-24.21-90.30-22.79L-90.30-22.79Q-90.30-20.80-90.01-18.80Q-89.72-16.80-89.40-14.93L-89.40-14.93Q-86.62-15.70-83.56-17.15Q-80.50-18.60-77.83-20.41Q-75.15-22.21-73.28-24.21Q-71.41-26.21-70.96-28.14L-70.96-28.14Q-69.09-27.05-66.10-26.47Q-63.10-25.89-59.23-25.89L-59.23-25.89Q-57.69-25.89-56.01-25.98Q-54.33-26.08-52.75-26.31Q-51.18-26.53-49.85-26.98Q-48.53-27.43-47.70-28.14L-47.70-28.14Q-48.21-26.85-48.50-24.92Q-48.79-22.99-48.95-20.76Q-49.11-18.54-49.18-16.25Q-49.24-13.96-49.24-11.97L-49.24-11.97Q-49.24-9.97-49.11-7.42Q-48.98-4.88-48.79-2.52Q-48.60-0.17-48.31 1.57Q-48.02 3.31-47.70 3.76L-47.70 3.76Q-49.82 3.25-53.01 2.89Q-56.20 2.54-59.68 2.54L-59.68 2.54Q-63.16 2.54-66.26 2.89Q-69.35 3.25-71.29 3.76L-71.29 3.76Q-71.29-3.14-72.86-5.91Q-74.44-8.68-77.54-8.68L-77.54-8.68Q-79.08-8.68-80.92-7.81Q-82.76-6.94-84.34-5.26Q-85.92-3.59-87.08-1.17Q-88.24 1.25-88.43 4.34L-88.43 4.34L-88.37 17.17Q-88.37 19.49-87.04 20.97Q-85.72 22.45-83.40 23.26Q-81.08 24.06-77.86 24.39Q-74.64 24.71-70.83 24.71L-70.83 24.71Q-71.22 26.06-71.45 28.06Q-71.67 30.06-71.67 32.31L-71.67 32.31Q-71.67 34.76-71.48 37.24Q-71.29 39.73-70.83 41.47L-70.83 41.47Q-72.90 41.14-75.93 40.85Q-78.96 40.56-82.56 40.34Q-86.17 40.11-90.23 39.98Q-94.29 39.86-98.36 39.86L-98.36 39.86Q-101.45 39.86-105.28 39.95Q-109.12 40.05-112.86 40.27Q-116.60 40.50-119.79 40.79Q-122.98 41.08-124.65 41.47ZM-36.87 41.47L-36.87 41.47Q-36.35 39.79-36.16 37.47Q-35.96 35.15-35.96 32.89L-35.96 32.89Q-35.96 30.83-36.22 28.77Q-36.48 26.71-36.87 24.71L-36.87 24.71Q-33.26 24.71-30.91 24.39Q-28.55 24.06-27.13 23.26Q-25.72 22.45-25.17 20.97Q-24.62 19.49-24.62 17.17L-24.62 17.17L-24.62-0.75Q-24.69-3.52-25.33-5.17Q-25.97-6.81-27.10-7.68Q-28.23-8.55-29.87-8.84Q-31.52-9.13-33.58-9.13L-33.58-9.13L-35.58-9.13Q-35.06-10.42-34.68-12.71Q-34.29-14.99-34.29-17.51L-34.29-17.51Q-34.29-19.96-34.64-22.18Q-35.00-24.40-35.58-25.76L-35.58-25.76Q-33.71-25.50-31.10-25.37Q-28.49-25.24-25.46-25.24L-25.46-25.24Q-22.37-25.24-19.05-25.40Q-15.73-25.56-12.57-25.89Q-9.41-26.21-6.61-26.79Q-3.80-27.37-1.74-28.14L-1.74-28.14Q-2.19-26.85-2.35-25.53Q-2.51-24.21-2.51-22.79L-2.51-22.79Q-2.51-20.80-2.22-18.80Q-1.93-16.80-1.61-14.93L-1.61-14.93Q1.16-15.70 4.22-17.15Q7.28-18.60 9.96-20.41Q12.63-22.21 14.50-24.21Q16.37-26.21 16.82-28.14L16.82-28.14Q18.69-27.05 21.69-26.47Q24.69-25.89 28.55-25.89L28.55-25.89Q30.10-25.89 31.78-25.98Q33.45-26.08 35.03-26.31Q36.61-26.53 37.93-26.98Q39.25-27.43 40.09-28.14L40.09-28.14Q39.57-26.85 39.28-24.92Q38.99-22.99 38.83-20.76Q38.67-18.54 38.61-16.25Q38.54-13.96 38.54-11.97L38.54-11.97Q38.54-9.97 38.67-7.42Q38.80-4.88 38.99-2.52Q39.19-0.17 39.48 1.57Q39.77 3.31 40.09 3.76L40.09 3.76Q37.96 3.25 34.77 2.89Q31.58 2.54 28.10 2.54L28.10 2.54Q24.62 2.54 21.53 2.89Q18.43 3.25 16.50 3.76L16.50 3.76Q16.50-3.14 14.92-5.91Q13.34-8.68 10.25-8.68L10.25-8.68Q8.70-8.68 6.86-7.81Q5.03-6.94 3.45-5.26Q1.87-3.59 0.71-1.17Q-0.45 1.25-0.64 4.34L-0.64 4.34L-0.58 17.17Q-0.58 19.49 0.74 20.97Q2.06 22.45 4.38 23.26Q6.70 24.06 9.93 24.39Q13.15 24.71 16.95 24.71L16.95 24.71Q16.56 26.06 16.34 28.06Q16.11 30.06 16.11 32.31L16.11 32.31Q16.11 34.76 16.31 37.24Q16.50 39.73 16.95 41.47L16.95 41.47Q14.89 41.14 11.86 40.85Q8.83 40.56 5.22 40.34Q1.61 40.11-2.45 39.98Q-6.51 39.86-10.57 39.86L-10.57 39.86Q-13.66 39.86-17.50 39.95Q-21.33 40.05-25.07 40.27Q-28.81 40.50-32.00 40.79Q-35.19 41.08-36.87 41.47ZM51.18 30.77L51.18 30.77Q51.88 29.74 52.53 28.12Q53.17 26.51 53.66 23.90Q54.14 21.29 54.43 17.46Q54.72 13.62 54.72 8.08L54.72 8.08Q54.72 2.28 54.43-1.33Q54.14-4.94 53.66-7.23Q53.17-9.52 52.53-10.93Q51.88-12.35 51.24-13.71L51.24-13.71Q53.82-13.96 57.11-15.22Q60.39-16.48 63.45-18.41Q66.52-20.34 68.90-22.86Q71.29-25.37 72.06-28.14L72.06-28.14Q73.22-27.63 75.41-27.21Q77.60-26.79 80.50-26.50Q83.40-26.21 86.82-26.05Q90.23-25.89 93.91-25.89L93.91-25.89Q97.26-25.89 100.42-26.11Q103.58-26.34 106.22-26.66Q108.86-26.98 110.79-27.37Q112.73-27.76 113.70-28.14L113.70-28.14Q114.47-25.37 116.92-22.86Q119.37-20.34 122.49-18.41Q125.62-16.48 128.87-15.22Q132.13-13.96 134.51-13.71L134.51-13.71Q133.87-12.42 133.26-11.03Q132.64-9.64 132.16-7.36Q131.68-5.07 131.39-1.49Q131.10 2.09 131.10 7.76L131.10 7.76Q131.10 13.36 131.29 17.26Q131.48 21.16 131.87 23.81Q132.26 26.45 132.93 28.06Q133.61 29.67 134.58 30.77L134.58 30.77Q132.97 30.77 130.90 31.25Q128.84 31.73 126.62 32.54Q124.39 33.35 122.24 34.44Q120.08 35.54 118.27 36.79Q116.47 38.05 115.18 39.40Q113.89 40.76 113.44 42.11L113.44 42.11Q112.21 41.66 110.15 41.27Q108.09 40.89 105.38 40.56Q102.67 40.24 99.45 40.05Q96.23 39.86 92.68 39.86L92.68 39.86Q89.20 39.86 86.01 40.05Q82.82 40.24 80.15 40.53Q77.47 40.82 75.44 41.24Q73.41 41.66 72.32 42.11L72.32 42.11Q71.22 39.73 68.64 37.66Q66.06 35.60 62.97 34.05Q59.88 32.51 56.69 31.64Q53.50 30.77 51.18 30.77ZM80.50 7.82L80.50 7.82Q80.50 13.30 81.18 17.23Q81.86 21.16 83.40 23.68Q84.95 26.19 87.40 27.38Q89.85 28.58 93.39 28.58L93.39 28.58Q97.13 28.58 99.52 27.00Q101.90 25.42 103.25 22.65Q104.61 19.87 105.12 16.07Q105.64 12.27 105.64 7.82L105.64 7.82Q105.64 3.37 105.12-0.40Q104.61-4.17 103.25-6.91Q101.90-9.64 99.52-11.16Q97.13-12.67 93.39-12.67L93.39-12.67Q89.85-12.67 87.40-11.51Q84.95-10.35 83.40-7.87Q81.86-5.39 81.18-1.52Q80.50 2.34 80.50 7.82ZM149.85 41.47L149.85 41.47Q150.37 39.79 150.56 37.47Q150.76 35.15 150.76 32.89L150.76 32.89Q150.76 30.83 150.50 28.77Q150.24 26.71 149.85 24.71L149.85 24.71Q153.46 24.71 155.82 24.39Q158.17 24.06 159.59 23.26Q161.00 22.45 161.55 20.97Q162.10 19.49 162.10 17.17L162.10 17.17L162.10-0.75Q162.04-3.52 161.39-5.17Q160.75-6.81 159.62-7.68Q158.49-8.55 156.85-8.84Q155.20-9.13 153.14-9.13L153.14-9.13L151.14-9.13Q151.66-10.42 152.04-12.71Q152.43-14.99 152.43-17.51L152.43-17.51Q152.43-19.96 152.08-22.18Q151.72-24.40 151.14-25.76L151.14-25.76Q153.01-25.50 155.62-25.37Q158.23-25.24 161.26-25.24L161.26-25.24Q164.36-25.24 167.67-25.40Q170.99-25.56 174.15-25.89Q177.31-26.21 180.11-26.79Q182.92-27.37 184.98-28.14L184.98-28.14Q184.53-26.85 184.37-25.53Q184.21-24.21 184.21-22.79L184.21-22.79Q184.21-20.80 184.50-18.80Q184.79-16.80 185.11-14.93L185.11-14.93Q187.88-15.70 190.94-17.15Q194.00-18.60 196.68-20.41Q199.35-22.21 201.22-24.21Q203.09-26.21 203.54-28.14L203.54-28.14Q205.41-27.05 208.41-26.47Q211.41-25.89 215.27-25.89L215.27-25.89Q216.82-25.89 218.50-25.98Q220.17-26.08 221.75-26.31Q223.33-26.53 224.65-26.98Q225.97-27.43 226.81-28.14L226.81-28.14Q226.29-26.85 226.00-24.92Q225.71-22.99 225.55-20.76Q225.39-18.54 225.33-16.25Q225.26-13.96 225.26-11.97L225.26-11.97Q225.26-9.97 225.39-7.42Q225.52-4.88 225.71-2.52Q225.91-0.17 226.20 1.57Q226.49 3.31 226.81 3.76L226.81 3.76Q224.68 3.25 221.49 2.89Q218.30 2.54 214.82 2.54L214.82 2.54Q211.34 2.54 208.25 2.89Q205.15 3.25 203.22 3.76L203.22 3.76Q203.22-3.14 201.64-5.91Q200.06-8.68 196.97-8.68L196.97-8.68Q195.42-8.68 193.58-7.81Q191.75-6.94 190.17-5.26Q188.59-3.59 187.43-1.17Q186.27 1.25 186.08 4.34L186.08 4.34L186.14 17.17Q186.14 19.49 187.46 20.97Q188.78 22.45 191.10 23.26Q193.42 24.06 196.65 24.39Q199.87 24.71 203.67 24.71L203.67 24.71Q203.29 26.06 203.06 28.06Q202.83 30.06 202.83 32.31L202.83 32.31Q202.83 34.76 203.03 37.24Q203.22 39.73 203.67 41.47L203.67 41.47Q201.61 41.14 198.58 40.85Q195.55 40.56 191.94 40.34Q188.33 40.11 184.27 39.98Q180.21 39.86 176.15 39.86L176.15 39.86Q173.06 39.86 169.22 39.95Q165.39 40.05 161.65 40.27Q157.91 40.50 154.72 40.79Q151.53 41.08 149.85 41.47Z"/></g>
</svg>